<svg width="60.000000" height="60.000000" viewBox="0 0 60 60" fill="none" xmlns="http://www.w3.org/2000/svg" xmlns:xlink="http://www.w3.org/1999/xlink">
	<desc>
			Created with Pixso.
	</desc>
	<defs>
		<clipPath id="clip3_5">
			<rect id="instagram" width="50.000000" height="50.000000" transform="translate(5.000000 5.000000)" fill="white" fill-opacity="0"/>
		</clipPath>
	</defs>
	<rect id="Компоненты 2" width="60.000000" height="60.000000" fill="#FFFFFF" fill-opacity="0"/>
	<circle id="Эллипс 2" cx="30.000000" cy="30.000000" r="30.000000" fill="#C4C4C4" fill-opacity="1.000000"/>
	<g clip-path="url(#clip3_5)">
		<path id="path" d="M40.41 11.25L19.58 11.25C14.98 11.25 11.25 14.98 11.25 19.58L11.25 40.41C11.25 45.01 14.98 48.75 19.58 48.75L40.41 48.75C45.01 48.75 48.75 45.01 48.75 40.41L48.75 19.58C48.75 14.98 45.01 11.25 40.41 11.25Z" fill="#000000" fill-opacity="0" fill-rule="nonzero"/>
		<path id="path" d="M19.58 11.25C14.98 11.25 11.25 14.98 11.25 19.58L11.25 40.41C11.25 45.01 14.98 48.75 19.58 48.75L40.41 48.75C45.01 48.75 48.75 45.01 48.75 40.41L48.75 19.58C48.75 14.98 45.01 11.25 40.41 11.25L19.58 11.25Z" stroke="#FFFFFF" stroke-opacity="1.000000" stroke-width="1.500000" stroke-linejoin="round"/>
		<path id="path" d="M30 38.33C34.6 38.33 38.33 34.6 38.33 30C38.33 25.39 34.6 21.66 30 21.66C25.39 21.66 21.66 25.39 21.66 30C21.66 34.6 25.39 38.33 30 38.33Z" fill="#000000" fill-opacity="0" fill-rule="nonzero"/>
		<path id="path" d="M38.33 30C38.33 25.39 34.6 21.66 30 21.66C25.39 21.66 21.66 25.39 21.66 30C21.66 34.6 25.39 38.33 30 38.33C34.6 38.33 38.33 34.6 38.33 30Z" stroke="#FFFFFF" stroke-opacity="1.000000" stroke-width="1.500000" stroke-linejoin="round"/>
		<path id="path" d="M41.45 20.62C42.6 20.62 43.54 19.69 43.54 18.54C43.54 17.39 42.6 16.45 41.45 16.45C40.3 16.45 39.37 17.39 39.37 18.54C39.37 19.69 40.3 20.62 41.45 20.62Z" fill="#FFFFFF" fill-opacity="1.000000" fill-rule="nonzero"/>
	</g>
</svg>
