<svg width="60.000000" height="60.000000" viewBox="0 0 60 60" fill="none" xmlns="http://www.w3.org/2000/svg" xmlns:xlink="http://www.w3.org/1999/xlink">
	<desc>
			Created with Pixso.
	</desc>
	<defs/>
	<rect id="Компоненты 3" width="60.000000" height="60.000000" fill="#FFFFFF" fill-opacity="0"/>
	<circle id="Эллипс 2" cx="30.000000" cy="30.000000" r="30.000000" fill="#C4C4C4" fill-opacity="1.000000"/>
	<path id="path" d="M45.02 12.32C45.02 12.32 49.06 10.74 48.73 14.57C48.61 16.15 47.6 21.67 46.81 27.65L44.12 45.34C44.12 45.34 43.89 47.94 41.87 48.39C39.84 48.84 36.81 46.81 36.25 46.36C35.8 46.02 27.81 40.95 25 38.47C24.22 37.79 23.32 36.44 25.12 34.86L36.92 23.59C38.27 22.24 39.62 19.08 34 22.91L18.26 33.62C18.26 33.62 16.46 34.75 13.09 33.73L5.78 31.48C5.78 31.48 3.08 29.79 7.69 28.1C18.93 22.8 32.76 17.39 45.02 12.32Z" fill="#FFFFFF" fill-opacity="1.000000" fill-rule="nonzero"/>
</svg>
