<svg width="43.382812" height="24.960938" viewBox="0 0 43.3828 24.9609" fill="none" xmlns="http://www.w3.org/2000/svg" xmlns:xlink="http://www.w3.org/1999/xlink">
	<desc>
			Created with Pixso.
	</desc>
	<defs/>
	<path id="VK" d="M25.03 20.96Q25.01 22.02 25.01 22.76Q25.01 23.67 25.29 24.17Q25.37 24.32 25.49 24.42Q25.78 24.67 26.29 24.67Q26.46 24.67 26.61 24.64Q26.94 24.56 27.22 24.31Q27.41 24.16 27.51 23.96Q27.65 23.7 27.65 23.37Q27.66 22.67 27.68 20.61Q27.7 18.54 27.72 15.09L30.11 13L41.11 24.24Q41.41 24.54 41.76 24.61Q41.88 24.64 42.01 24.64Q42.17 24.64 42.33 24.6Q42.67 24.51 42.96 24.24Q43.21 23.99 43.31 23.69Q43.38 23.5 43.38 23.29Q43.38 23.09 43.32 22.92Q43.23 22.63 42.99 22.39L32.09 11.25L42.25 2.51Q42.48 2.31 42.59 2.06Q42.69 1.82 42.69 1.54Q42.69 1.33 42.64 1.14Q42.54 0.83 42.31 0.57Q42.06 0.29 41.75 0.19Q41.58 0.14 41.39 0.14Q40.95 0.14 40.51 0.52L27.73 11.58Q27.72 9.01 27.72 6.45Q27.72 3.9 27.7 1.33Q27.7 1.08 27.62 0.87Q27.52 0.61 27.3 0.39Q27.09 0.18 26.83 0.08Q26.61 0 26.36 0Q26.08 0 25.85 0.1Q25.62 0.19 25.44 0.38Q25.28 0.55 25.18 0.75Q25.06 1.01 25.06 1.33L25.04 18.24Q25.04 19.89 25.03 20.96ZM0 1.46Q0 1.5 0 1.54Q0 1.96 0.12 2.21L10.33 24.16Q10.53 24.6 10.87 24.79Q11.15 24.96 11.53 24.96Q11.64 24.96 11.75 24.94Q12.03 24.88 12.28 24.68Q12.63 24.41 12.76 24.11L21.93 1.93Q22.02 1.7 22.02 1.3Q22.02 1.22 22.01 1.14Q21.95 0.79 21.63 0.48Q21.33 0.18 20.99 0.12Q20.89 0.1 20.79 0.1Q20.26 0.1 19.92 0.35Q19.63 0.56 19.47 0.94L11.46 20.25L2.53 1.14Q2.39 0.82 2.15 0.63Q1.8 0.35 1.23 0.35Q1.17 0.35 1.11 0.35Q0.74 0.4 0.39 0.73Q0.03 1.08 0 1.46Z" fill="#C4C4C4" fill-opacity="1.000000" fill-rule="evenodd"/>
</svg>
